# xmcd
#
# Track frame offsets:
#	183
#	17718
#	39770
#	63980
#	80738
#	100560
#	123483
#	144523
#	160625
#	178268
#	195850
#
# Disc length: 2918 seconds
#
# Revision: 0
# Processed by: cddbd v1.5.2PL0 Copyright (c) Steve Scherf et al.
# Submitted via: EasyCDDAExtractor 15.3.0.1
#
DISCID=820b640b
DTITLE=봄여름가을겨울 - 봄여름가을겨울 1집
DYEAR=1988
DGENRE=
TTITLE0=항상 기뻐하는 사람들(봄)
TTITLE1=헤어지긴 정말로 싫어
TTITLE2=내가 걷는 길
TTITLE3=거리의 악사(여름)
TTITLE4=혼자걷는 너의 뒷 모습
TTITLE5=사람들은 모두 변하나봐(가을)
TTITLE6=방황
TTITLE7=전화
TTITLE8=보고싶은 친구
TTITLE9=12월 31일(겨울)
TTITLE10=또 하나의 내가 있다면
EXTD=
EXTT0=
EXTT1=
EXTT2=
EXTT3=
EXTT4=
EXTT5=
EXTT6=
EXTT7=
EXTT8=
EXTT9=
EXTT10=
PLAYORDER=
